<mxfile host="Electron" agent="Mozilla/5.0 (Windows NT 10.0; Win64; x64) AppleWebKit/537.36 (KHTML, like Gecko) draw.io/26.2.2 Chrome/134.0.6998.178 Electron/35.1.2 Safari/537.36" version="26.2.2">
  <diagram name="Page-1" id="MYwFMe7IIpy0Kq-xPw-L">
    <mxGraphModel dx="1031" dy="746" grid="1" gridSize="10" guides="1" tooltips="1" connect="1" arrows="1" fold="1" page="1" pageScale="1" pageWidth="980" pageHeight="690" math="0" shadow="0">
      <root>
        <mxCell id="0" />
        <mxCell id="1" parent="0" />
        <mxCell id="-3-836eGw2Wub0Fidye5-5" value="" style="rounded=0;whiteSpace=wrap;html=1;fillColor=none;" parent="1" vertex="1">
          <mxGeometry x="320" y="320" width="40" height="40" as="geometry" />
        </mxCell>
        <mxCell id="-3-836eGw2Wub0Fidye5-1" value="" style="rounded=0;whiteSpace=wrap;html=1;fillColor=none;" parent="1" vertex="1">
          <mxGeometry x="320" y="280" width="40" height="40" as="geometry" />
        </mxCell>
        <mxCell id="-3-836eGw2Wub0Fidye5-2" value="" style="rounded=0;whiteSpace=wrap;html=1;fillColor=none;" parent="1" vertex="1">
          <mxGeometry x="360" y="280" width="40" height="40" as="geometry" />
        </mxCell>
        <mxCell id="-3-836eGw2Wub0Fidye5-3" value="" style="rounded=0;whiteSpace=wrap;html=1;fillColor=none;" parent="1" vertex="1">
          <mxGeometry x="400" y="280" width="40" height="40" as="geometry" />
        </mxCell>
        <mxCell id="-3-836eGw2Wub0Fidye5-4" value="" style="rounded=0;whiteSpace=wrap;html=1;fillColor=none;" parent="1" vertex="1">
          <mxGeometry x="440" y="280" width="40" height="40" as="geometry" />
        </mxCell>
        <mxCell id="-3-836eGw2Wub0Fidye5-6" value="" style="rounded=0;whiteSpace=wrap;html=1;fillColor=none;" parent="1" vertex="1">
          <mxGeometry x="360" y="320" width="40" height="40" as="geometry" />
        </mxCell>
        <mxCell id="-3-836eGw2Wub0Fidye5-7" value="" style="rounded=0;whiteSpace=wrap;html=1;fillColor=none;" parent="1" vertex="1">
          <mxGeometry x="400" y="320" width="40" height="40" as="geometry" />
        </mxCell>
        <mxCell id="-3-836eGw2Wub0Fidye5-8" value="" style="rounded=0;whiteSpace=wrap;html=1;fillColor=none;" parent="1" vertex="1">
          <mxGeometry x="440" y="320" width="40" height="40" as="geometry" />
        </mxCell>
        <mxCell id="-3-836eGw2Wub0Fidye5-9" value="" style="rounded=0;whiteSpace=wrap;html=1;fillColor=none;" parent="1" vertex="1">
          <mxGeometry x="320" y="360" width="40" height="40" as="geometry" />
        </mxCell>
        <mxCell id="-3-836eGw2Wub0Fidye5-10" value="" style="rounded=0;whiteSpace=wrap;html=1;fillColor=none;" parent="1" vertex="1">
          <mxGeometry x="360" y="360" width="40" height="40" as="geometry" />
        </mxCell>
        <mxCell id="-3-836eGw2Wub0Fidye5-11" value="" style="rounded=0;whiteSpace=wrap;html=1;fillColor=none;" parent="1" vertex="1">
          <mxGeometry x="400" y="360" width="40" height="40" as="geometry" />
        </mxCell>
        <mxCell id="-3-836eGw2Wub0Fidye5-12" value="" style="rounded=0;whiteSpace=wrap;html=1;fillColor=none;" parent="1" vertex="1">
          <mxGeometry x="440" y="360" width="40" height="40" as="geometry" />
        </mxCell>
        <mxCell id="-3-836eGw2Wub0Fidye5-13" value="" style="endArrow=oval;html=1;rounded=0;entryX=0.5;entryY=0.5;entryDx=0;entryDy=0;entryPerimeter=0;strokeColor=#0099CC;strokeWidth=2;endFill=1;startArrow=classic;startFill=1;" parent="1" target="-3-836eGw2Wub0Fidye5-1" edge="1">
          <mxGeometry width="50" height="50" relative="1" as="geometry">
            <mxPoint x="450" y="380" as="sourcePoint" />
            <mxPoint x="520" y="320" as="targetPoint" />
            <Array as="points">
              <mxPoint x="420" y="380" />
              <mxPoint x="420" y="350" />
              <mxPoint x="340" y="350" />
            </Array>
          </mxGeometry>
        </mxCell>
        <mxCell id="-3-836eGw2Wub0Fidye5-14" value="" style="endArrow=oval;html=1;rounded=0;strokeColor=#00E673;strokeWidth=2;endFill=1;startArrow=classic;startFill=1;" parent="1" edge="1">
          <mxGeometry width="50" height="50" relative="1" as="geometry">
            <mxPoint x="350" y="300" as="sourcePoint" />
            <mxPoint x="460" y="380" as="targetPoint" />
            <Array as="points">
              <mxPoint x="380" y="300" />
              <mxPoint x="380" y="330" />
              <mxPoint x="460" y="330" />
            </Array>
          </mxGeometry>
        </mxCell>
      </root>
    </mxGraphModel>
  </diagram>
</mxfile>
